<svg width="558" height="164" viewBox="0 0 558 164" fill="none" xmlns="http://www.w3.org/2000/svg">
<rect width="558" height="164" fill="white"/>
<path d="M59 91C81.0914 91 99 73.9868 99 53C99 32.0132 81.0914 15 59 15C36.9086 15 19 32.0132 19 53C19 73.9868 36.9086 91 59 91Z" fill="#86A7FA"/>
<path d="M59 130C81.0914 130 99 112.987 99 92C99 71.0132 81.0914 54 59 54C36.9086 54 19 71.0132 19 92C19 112.987 36.9086 130 59 130Z" fill="#FF9494"/>
<path d="M99 91C121.091 91 139 73.9868 139 53C139 32.0132 121.091 15 99 15C76.9086 15 59 32.0132 59 53C59 73.9868 76.9086 91 99 91Z" fill="#FF5C00"/>
<path d="M159.545 89H143.045V42.4545H159.682C164.364 42.4545 168.394 43.3864 171.773 45.25C175.152 47.0985 177.75 49.7576 179.568 53.2273C181.402 56.697 182.318 60.8485 182.318 65.6818C182.318 70.5303 181.402 74.697 179.568 78.1818C177.75 81.6667 175.136 84.3409 171.727 86.2045C168.333 88.0682 164.273 89 159.545 89ZM152.886 80.5682H159.136C162.045 80.5682 164.492 80.053 166.477 79.0227C168.477 77.9773 169.977 76.3636 170.977 74.1818C171.992 71.9848 172.5 69.1515 172.5 65.6818C172.5 62.2424 171.992 59.4318 170.977 57.25C169.977 55.0682 168.485 53.4621 166.5 52.4318C164.515 51.4015 162.068 50.8864 159.159 50.8864H152.886V80.5682ZM189.608 89V42.4545H220.972V50.5682H199.449V61.6591H219.358V69.7727H199.449V80.8864H221.062V89H189.608ZM254.045 55.8409C253.864 54.0076 253.083 52.5833 251.705 51.5682C250.326 50.553 248.455 50.0455 246.091 50.0455C244.485 50.0455 243.129 50.2727 242.023 50.7273C240.917 51.1667 240.068 51.7803 239.477 52.5682C238.902 53.3561 238.614 54.25 238.614 55.25C238.583 56.0833 238.758 56.8106 239.136 57.4318C239.53 58.053 240.068 58.5909 240.75 59.0455C241.432 59.4848 242.22 59.8712 243.114 60.2045C244.008 60.5227 244.962 60.7955 245.977 61.0227L250.159 62.0227C252.189 62.4773 254.053 63.0833 255.75 63.8409C257.447 64.5985 258.917 65.5303 260.159 66.6364C261.402 67.7424 262.364 69.0455 263.045 70.5455C263.742 72.0455 264.098 73.7652 264.114 75.7045C264.098 78.553 263.371 81.0227 261.932 83.1136C260.508 85.1894 258.447 86.803 255.75 87.9545C253.068 89.0909 249.833 89.6591 246.045 89.6591C242.288 89.6591 239.015 89.0833 236.227 87.9318C233.455 86.7803 231.288 85.0758 229.727 82.8182C228.182 80.5455 227.371 77.7348 227.295 74.3864H236.818C236.924 75.947 237.371 77.25 238.159 78.2955C238.962 79.3258 240.03 80.1061 241.364 80.6364C242.712 81.1515 244.235 81.4091 245.932 81.4091C247.598 81.4091 249.045 81.1667 250.273 80.6818C251.515 80.197 252.477 79.5227 253.159 78.6591C253.841 77.7955 254.182 76.803 254.182 75.6818C254.182 74.6364 253.871 73.7576 253.25 73.0455C252.644 72.3333 251.75 71.7273 250.568 71.2273C249.402 70.7273 247.97 70.2727 246.273 69.8636L241.205 68.5909C237.28 67.6364 234.182 66.1439 231.909 64.1136C229.636 62.0833 228.508 59.3485 228.523 55.9091C228.508 53.0909 229.258 50.6288 230.773 48.5227C232.303 46.4167 234.402 44.7727 237.068 43.5909C239.735 42.4091 242.765 41.8182 246.159 41.8182C249.614 41.8182 252.629 42.4091 255.205 43.5909C257.795 44.7727 259.811 46.4167 261.25 48.5227C262.689 50.6288 263.432 53.0682 263.477 55.8409H254.045ZM301.597 57.5C301.278 56.3939 300.831 55.4167 300.256 54.5682C299.68 53.7045 298.975 52.9773 298.142 52.3864C297.324 51.7803 296.384 51.3182 295.324 51C294.278 50.6818 293.119 50.5227 291.847 50.5227C289.468 50.5227 287.377 51.1136 285.574 52.2955C283.786 53.4773 282.392 55.197 281.392 57.4545C280.392 59.697 279.892 62.4394 279.892 65.6818C279.892 68.9242 280.384 71.6818 281.369 73.9545C282.354 76.2273 283.748 77.9621 285.551 79.1591C287.354 80.3409 289.483 80.9318 291.938 80.9318C294.165 80.9318 296.066 80.5379 297.642 79.75C299.233 78.947 300.445 77.8182 301.278 76.3636C302.127 74.9091 302.551 73.1894 302.551 71.2045L304.551 71.5H292.551V64.0909H312.028V69.9545C312.028 74.0455 311.165 77.5606 309.438 80.5C307.71 83.4242 305.331 85.6818 302.301 87.2727C299.271 88.8485 295.801 89.6364 291.892 89.6364C287.528 89.6364 283.695 88.6742 280.392 86.75C277.089 84.8106 274.513 82.0606 272.665 78.5C270.831 74.9242 269.915 70.6818 269.915 65.7727C269.915 62 270.46 58.6364 271.551 55.6818C272.657 52.7121 274.203 50.197 276.188 48.1364C278.172 46.0758 280.483 44.5076 283.119 43.4318C285.756 42.3561 288.612 41.8182 291.688 41.8182C294.324 41.8182 296.778 42.2045 299.051 42.9773C301.324 43.7348 303.339 44.8106 305.097 46.2045C306.869 47.5985 308.316 49.2576 309.438 51.1818C310.559 53.0909 311.278 55.197 311.597 57.5H301.597ZM358.352 42.4545V89H349.852L329.602 59.7045H329.261V89H319.42V42.4545H328.057L348.148 71.7273H348.557V42.4545H358.352Z" fill="url(#paint0_linear_1_2)"/>
<defs>
<linearGradient id="paint0_linear_1_2" x1="363" y1="31.5294" x2="92.8146" y2="109.903" gradientUnits="userSpaceOnUse">
<stop offset="0.0823529" stop-color="#254A5F"/>
<stop offset="1" stop-color="#0D9EEF" stop-opacity="0"/>
</linearGradient>
</defs>
</svg>
